PathFileType	4	(X/Y/Z)	OpenSim_Sub06_CSStiffKnee_Gyro.trc
DataRate	CameraRate	NumFrames	NumMarkers	Units	OrigDataRate	OrigDataStartFrame	OrigNumFrames
100	100	34	8	m	100	896	7164
Frame#	Time	torso_imu_offset_imu	pelvis_imu_offset_imu	tibia_r_imu_offset_imu	femur_r_imu_offset_imu	tibia_l_imu_offset_imu	femur_l_imu_offset_imu	toes_r_imu_offset_imu	toes_l_imu_offset_imu
				X1	Y1	Z1	X2	Y2	Z2	X3	Y3	Z3	X4	Y4	Z4	X5	Y5	Z5	X6	Y6	Z6	X7	Y7	Z7	X8		Y8	Z8	

896	8.95000000	0.49188065	0.07615595	0.24814776	-0.19325239	0.03199966	0.02582514	0.00929844	0.07800747	-0.58402461	-0.00991479	0.03193393	-0.95399701	0.94999848	-0.51235902	-3.55353952	0.20701609	-0.11551469	0.18763929	-0.02889786	-0.33553057	-0.17392896	-0.07814890	1.79497089	-0.87666848
897	8.96000000	0.46138901	0.11781275	0.20302516	-0.24298606	0.05141849	0.00538562	-0.09868679	0.12781615	-0.57907355	-0.05732508	-0.02684274	-0.92819966	1.12803777	-0.55756725	-3.33844336	0.27451285	-0.11563835	0.31516762	-0.01276179	-0.33948574	-0.21230683	0.37120766	2.14502534	-0.77430663
898	8.97000000	0.43043310	0.17185726	0.15514615	-0.30513309	0.06607957	-0.02599580	-0.16801826	0.14908785	-0.59585209	-0.09407074	-0.07675938	-0.88161180	1.30000614	-0.58055468	-3.12318555	0.36111006	-0.05989114	0.43312198	0.00384632	-0.34285862	-0.24607962	1.00071257	2.56245419	-0.70499552
899	8.98000000	0.35855360	0.20704097	0.14608474	-0.38918769	0.08823097	-0.06329981	-0.18100661	0.18016958	-0.65916097	-0.11855790	-0.09304665	-0.85928500	1.36125353	-0.64757587	-2.83582747	0.41105674	-0.02706056	0.38647839	0.02646427	-0.34235329	-0.26741811	1.56251271	2.72970784	-0.61074131
900	8.99000000	0.28468661	0.19571148	0.16402248	-0.46206222	0.11874532	-0.11017515	-0.13501971	0.21135923	-0.72829471	-0.11227280	-0.07213065	-0.86473354	1.33791512	-0.79162239	-2.50221215	0.29987839	-0.14033496	0.21866336	0.04267908	-0.34361760	-0.28769166	1.90551402	2.51071945	-0.47461349
901	9	0.21678626	0.16673966	0.18574896	-0.47330770	0.13305833	-0.16369396	-0.05404100	0.23127079	-0.79043745	-0.06542594	-0.03138982	-0.84614486	1.31382842	-0.93186983	-2.17884630	0.12996934	-0.32495247	0.08208686	0.06751769	-0.35145879	-0.30497916	2.09115989	2.03823313	-0.37950987
902	9.01000000	0.14857666	0.14804271	0.20496093	-0.44847748	0.12469145	-0.17945113	0.05641722	0.21950081	-0.84540030	0.03818692	0.00287811	-0.79208433	1.27072443	-0.98828971	-1.82174164	-0.04383835	-0.45693140	-0.09420939	0.09565381	-0.38024109	-0.32699021	2.14731597	1.52827939	-0.39075369
903	9.02000000	0.07268269	0.11578910	0.23039971	-0.41415578	0.10299772	-0.16987910	0.18840027	0.22017064	-0.90187998	0.20220514	0.02249719	-0.74717650	1.13590132	-0.92334344	-1.39555379	-0.33184812	-0.61280979	-0.33514578	0.10314397	-0.42858666	-0.34995049	1.92982987	0.99537622	-0.43960139
904	9.03000000	-0.00298453	0.10214070	0.24487827	-0.35105470	0.06809714	-0.15621859	0.28333455	0.21832126	-0.95002139	0.37955774	0.03099520	-0.71576118	0.92315906	-0.78861098	-0.90148805	-0.60471079	-0.70271106	-0.46826890	0.12182542	-0.49485143	-0.38642241	1.36597149	0.42251379	-0.46117394
905	9.04000000	-0.05554903	0.08341931	0.24943125	-0.31278837	0.03084979	-0.13301518	0.28964603	0.21030036	-1.00704888	0.51336570	0.05839037	-0.71820816	0.49720093	-0.66691147	-0.39538497	-0.80035167	-0.72650450	-0.52686068	0.14642985	-0.56858469	-0.42302512	0.80778960	-0.19267763	-0.48128429
906	9.05000000	-0.08405530	0.04281300	0.24185127	-0.28636435	-0.01427687	-0.08511637	0.24298197	0.21885276	-1.08074080	0.58069225	0.10505410	-0.74305208	-0.21514868	-0.52967141	0.05707601	-0.86116064	-0.71290095	-0.57499670	0.14913228	-0.67368977	-0.44607291	0.40807632	-0.74027465	-0.53545278
907	9.06000000	-0.12404057	0.02140796	0.22061540	-0.27652605	-0.08215423	-0.02154478	0.13651412	0.23915777	-1.15766646	0.57942274	0.12029915	-0.75032226	-1.03588250	-0.32475764	0.47368206	-0.76831895	-0.68922799	-0.63533431	0.15231703	-0.79476371	-0.47102952	-0.05059350	-1.22270427	-0.62896178
908	9.07000000	-0.17356927	0.03396525	0.19012556	-0.30980307	-0.16704371	0.06212878	-0.02141690	0.26810167	-1.24912218	0.50962748	0.10004474	-0.70212359	-1.75989468	-0.13946402	0.87598980	-0.58711952	-0.66565816	-0.70597109	0.12689106	-0.92253785	-0.49538842	0.20580753	-1.62175873	-0.59461197
909	9.08000000	-0.21972254	0.07221059	0.15172116	-0.39203371	-0.25465298	0.13117960	-0.19204172	0.28343402	-1.34540207	0.42083105	0.06188902	-0.64209499	-2.25653255	-0.06363849	1.24536312	-0.35614672	-0.71932341	-0.76381796	0.11585087	-1.06283248	-0.51475371	-1.45886555	-2.96140145	0.06014783
910	9.09000000	-0.28242343	0.11865960	0.10689247	-0.48812114	-0.31636129	0.16821284	-0.28226781	0.31433179	-1.44090148	0.35736272	0.05410743	-0.59436257	-2.53914185	-0.15576596	1.50337353	-0.19317634	-0.92072994	-0.75116842	0.10668871	-1.19895186	-0.54451696	-3.93224590	-4.17697432	0.47019319
911	9.10000000	-0.36269368	0.16727970	0.06680319	-0.58942192	-0.34144077	0.12954466	-0.31774901	0.32311486	-1.52760937	0.24445364	0.10998857	-0.47869737	-2.72130097	-0.28992638	1.71696911	-0.28940795	-1.09678642	-0.56285800	0.12284200	-1.35408512	-0.60954226	-1.04977555	-2.93831448	0.13697576
912	9.11000000	-0.41658331	0.22367525	0.02890416	-0.71261235	-0.33727007	0.01448391	-0.30621136	0.31623333	-1.60241393	0.06523203	0.19891592	-0.33913402	-2.63697406	-0.50316351	1.78799614	-0.61612016	-1.20982808	-0.35567311	0.05820529	-1.57215175	-0.66758157	-1.57394161	-2.81040291	0.56958003
913	9.12000000	-0.47870270	0.25369735	-0.04371774	-0.80227435	-0.32337413	-0.19994514	-0.24166013	0.30608694	-1.68544831	-0.09106404	0.26565404	-0.17969753	-1.34133857	-0.72179815	1.17320305	-0.79882214	-1.38403006	-0.07692980	0.11773626	-1.85185536	-0.77850083	-0.91227656	-1.58704180	0.85855402
914	9.13000000	-0.57298583	0.24863249	-0.06991822	-0.72182721	-0.33083253	-0.50897209	-0.22380573	0.27844493	-1.73119839	-0.21475178	0.33275578	0.03996737	0.15076633	-0.12997252	0.85437506	-1.02314122	-1.43675112	0.27107471	0.12860971	-2.19118495	-0.90912524	-1.23323193	1.24318804	0.32898081
915	9.14000000	-0.70405241	0.16278886	0.02101904	-0.48147443	-0.38557432	-0.85159162	-0.20867375	0.26229885	-1.76535979	-0.29793092	0.39250117	0.27263121	-0.52070760	0.58998934	1.76663492	-0.98114252	-1.09860222	0.49903650	0.18321584	-2.62624765	-1.06701326	0.83520382	0.22663497	0.27638748
916	9.15000000	-0.74038790	0.07928334	0.14243339	-0.41505118	-0.42551733	-1.08140850	-0.28208367	0.15492996	-1.80132761	-0.39774714	0.47044453	0.46467484	-1.04837138	0.18662165	2.43409305	-0.47534122	-0.07309919	0.44925424	0.36628461	-3.04739155	-1.32353837	-1.63002225	-0.48768726	0.29184152
917	9.16000000	-0.60060251	-0.00183051	0.08589716	-0.29948260	-0.34109589	-0.84374475	-0.32727197	0.01399921	-1.89699619	-0.60945548	0.56019499	0.68382473	-0.26315205	-0.38923116	2.39156112	-0.58557152	0.36441124	0.38938140	0.34811740	-3.45023030	-1.58206303	-0.30575221	-0.13490891	-0.14634246
918	9.17000000	-0.50426785	-0.05348770	-0.02769560	0.06649929	-0.19544810	-0.41004945	-0.25503960	-0.12158679	-2.03639157	-0.79930680	0.57590648	1.05216604	-0.34930892	-0.31931578	2.14706472	-1.29016636	0.00613885	0.55136720	0.48980124	-3.82235055	-1.93227644	0.56382322	-0.40594378	-0.30480794
919	9.18000000	-0.45266325	-0.04449361	-0.13643529	0.15832816	-0.12875647	-0.18956368	-0.19878864	-0.23304199	-2.11112015	-0.89341805	0.61759338	1.46657957	-1.15802421	-0.08649154	1.48334661	-1.54125138	-0.08289288	0.50359594	0.69283473	-4.11949524	-2.25664684	-0.04748125	-0.26962085	-0.36895230
920	9.19000000	-0.50688047	-0.03341287	-0.23339594	0.03519968	-0.10899523	-0.02631863	-0.08865777	-0.21502786	-2.14316832	-0.93845811	0.77528517	1.77120015	-1.67251457	-0.19325162	0.82370036	-1.55680915	-0.36358979	0.81839604	0.55605386	-4.31363250	-2.42829557	0.41015559	-0.30299267	-0.29833213
921	9.20000000	-0.63819611	-0.01642322	-0.26853067	-0.12359173	-0.07027837	0.07010241	-0.11153873	-0.22831952	-2.16383569	-0.93032752	0.95048451	1.89192270	-1.32665116	-0.35094910	0.51253734	-1.00636168	-0.62253263	1.42533631	0.27925605	-4.28922550	-2.58131380	0.01422241	-0.27713180	-0.15447693
922	9.21000000	-0.72393314	-0.02599641	-0.26498837	-0.29290425	0.03044020	0.07383580	-0.28898952	-0.28489770	-2.17078064	-0.91258027	0.99066630	1.87204067	-0.58294179	-0.42169354	0.50318690	-0.21939227	-0.99046122	1.98882660	0.04108914	-4.11680859	-2.65744692	0.11195212	-0.24337932	-0.05586061
923	9.22000000	-0.76776316	0.01119566	-0.25894232	-0.44709603	0.14651244	0.04049145	-0.42034193	-0.22332979	-2.15203553	-0.81720085	0.94808431	1.62427923	-0.14636613	-0.37470985	0.59835907	0.56985091	-1.26704347	1.95488534	-0.46161523	-3.73511586	-2.61379269	0.04751855	-0.17262328	-0.00031104
924	9.23000000	-0.82580874	0.04648770	-0.22300615	-0.58121130	0.22397416	0.01789803	-0.54896288	-0.22260288	-2.06677962	-0.64784096	0.86715309	1.47031401	0.29039736	-0.33610332	0.68904235	1.20603120	-1.12066025	1.48390954	-0.83271412	-3.07781205	-2.55013886	0.07471205	-0.11160886	0.00558622
925	9.24000000	-0.82263277	0.07278198	-0.20660447	-0.67193846	0.23372304	0.01912634	-0.69933430	-0.33454873	-1.93093976	-0.41948813	0.74464212	1.38732293	0.76818077	-0.28526046	0.65454980	1.55991523	-0.58461859	1.16794253	-0.83916190	-2.81367020	-2.53423553	0.11579835	-0.14118900	-0.00624882
926	9.25000000	-0.83699686	0.09804389	-0.22279662	-0.70501518	0.21271517	0.04855498	-0.76457358	-0.51178936	-1.77099409	-0.15239859	0.62679199	1.40952420	0.91774909	-0.21137807	0.55999586	1.66950449	0.11965226	1.12869120	-1.12274805	-2.27706246	-2.37163912	0.18267649	-0.13772637	-0.02626623
927	9.26000000	-0.81645796	0.10029286	-0.24265035	-0.69095338	0.19930142	0.09873237	-0.78133347	-0.69418619	-1.62691162	0.07299174	0.53937598	1.41237513	0.70639742	-0.16651919	0.51727396	1.55868951	0.58983094	1.01147830	-1.92914194	-0.39019017	-1.58721944	0.12022311	-0.20285705	-0.01363696
928	9.27000000	-0.77763661	0.07303349	-0.26461844	-0.64521670	0.18684317	0.17047287	-0.81849271	-0.87117198	-1.47783904	0.28102070	0.47092788	1.37425089	0.27500627	-0.16626444	0.52546349	1.32638759	0.74046385	0.92034907	-1.58070925	1.41276806	-0.79521673	0.10972387	-0.18968570	-0.02210041
929	9.28000000	-0.77193160	0.03843177	-0.30239084	-0.57845233	0.13918212	0.21683302	-1.15514756	-1.04545302	-1.23469922	0.48799853	0.37164709	1.22063797	-0.22703279	-0.18556171	0.57955541	0.93793611	0.49655701	0.85357552	-0.78136382	1.37996642	-0.73519364	0.11854581	-0.15586188	-0.02324321
